<svg xmlns="http://www.w3.org/2000/svg" xmlns:xlink="http://www.w3.org/1999/xlink" width="500" zoomAndPan="magnify" viewBox="0 0 375 374.999991" height="500" preserveAspectRatio="xMidYMid meet" version="1.0"><path fill="#13139f" d="M 184.820312 41.519531 C 181.726562 41.515625 178.636719 41.613281 175.546875 41.8125 C 172.457031 42.011719 169.378906 42.316406 166.3125 42.71875 C 163.242188 43.125 160.191406 43.628906 157.15625 44.234375 C 154.121094 44.839844 151.109375 45.546875 148.121094 46.351562 C 145.132812 47.15625 142.175781 48.058594 139.246094 49.058594 C 136.316406 50.058594 133.425781 51.152344 130.570312 52.34375 C 127.714844 53.539062 124.898438 54.820312 122.128906 56.199219 C 119.355469 57.578125 116.632812 59.042969 113.960938 60.601562 C 111.285156 62.160156 108.664062 63.804688 106.101562 65.535156 C 103.535156 67.265625 101.027344 69.078125 98.582031 70.976562 C 96.136719 72.871094 93.757812 74.847656 91.441406 76.902344 C 89.125 78.953125 86.882812 81.082031 84.707031 83.285156 C 82.53125 85.488281 80.433594 87.757812 78.410156 90.097656 C 76.386719 92.441406 74.441406 94.84375 72.574219 97.3125 C 70.710938 99.785156 68.929688 102.3125 67.230469 104.898438 C 65.53125 107.488281 63.921875 110.128906 62.398438 112.820312 C 60.875 115.515625 59.441406 118.253906 58.097656 121.042969 C 56.753906 123.832031 55.507812 126.664062 54.351562 129.535156 C 53.195312 132.40625 52.136719 135.3125 51.171875 138.25 C 50.210938 141.191406 49.34375 144.164062 48.578125 147.160156 C 47.8125 150.160156 47.144531 153.179688 46.578125 156.222656 C 46.007812 159.265625 45.542969 162.320312 45.175781 165.394531 C 44.8125 168.46875 44.550781 171.550781 44.386719 174.640625 C 44.226562 177.730469 44.167969 180.824219 44.210938 183.917969 C 44.253906 187.011719 44.398438 190.101562 44.644531 193.1875 C 44.890625 196.273438 45.242188 199.34375 45.691406 202.40625 C 46.140625 205.46875 46.691406 208.511719 47.34375 211.539062 C 47.996094 214.5625 48.746094 217.5625 49.597656 220.539062 C 50.445312 223.515625 51.394531 226.460938 52.4375 229.375 C 53.484375 232.285156 54.621094 235.160156 55.855469 238 C 57.09375 240.835938 58.417969 243.632812 59.839844 246.382812 C 61.257812 249.132812 62.765625 251.832031 64.363281 254.484375 L 44.535156 313.953125 C 44.453125 314.203125 44.386719 314.457031 44.332031 314.71875 C 44.277344 314.976562 44.242188 315.238281 44.21875 315.5 C 44.195312 315.765625 44.1875 316.027344 44.199219 316.292969 C 44.207031 316.554688 44.230469 316.820312 44.273438 317.082031 C 44.3125 317.34375 44.367188 317.601562 44.4375 317.855469 C 44.507812 318.109375 44.59375 318.359375 44.691406 318.605469 C 44.792969 318.847656 44.90625 319.085938 45.035156 319.316406 C 45.164062 319.546875 45.304688 319.773438 45.460938 319.984375 C 45.613281 320.199219 45.78125 320.40625 45.960938 320.597656 C 46.140625 320.792969 46.328125 320.976562 46.53125 321.148438 C 46.730469 321.324219 46.941406 321.480469 47.160156 321.628906 C 47.378906 321.777344 47.605469 321.910156 47.839844 322.03125 C 48.078125 322.152344 48.316406 322.257812 48.566406 322.351562 C 48.8125 322.441406 49.066406 322.519531 49.324219 322.582031 C 49.582031 322.644531 49.839844 322.6875 50.101562 322.722656 C 50.363281 322.753906 50.628906 322.769531 50.894531 322.769531 C 51.617188 322.769531 52.324219 322.652344 53.011719 322.421875 L 112.480469 302.601562 C 114.792969 303.988281 117.144531 305.308594 119.53125 306.5625 C 121.921875 307.816406 124.34375 309 126.800781 310.117188 C 129.253906 311.230469 131.742188 312.273438 134.257812 313.242188 C 136.773438 314.214844 139.316406 315.113281 141.882812 315.9375 C 144.453125 316.761719 147.042969 317.511719 149.652344 318.1875 C 152.265625 318.863281 154.894531 319.464844 157.539062 319.988281 C 160.183594 320.511719 162.84375 320.960938 165.515625 321.332031 C 168.1875 321.703125 170.867188 321.996094 173.554688 322.214844 C 176.242188 322.429688 178.9375 322.570312 181.632812 322.632812 C 184.328125 322.695312 187.023438 322.679688 189.71875 322.585938 C 192.417969 322.492188 195.105469 322.324219 197.792969 322.074219 C 200.480469 321.828125 203.15625 321.503906 205.820312 321.101562 C 208.488281 320.699219 211.144531 320.21875 213.78125 319.664062 C 216.421875 319.109375 219.042969 318.480469 221.648438 317.773438 C 224.25 317.070312 226.832031 316.289062 229.390625 315.433594 C 231.949219 314.582031 234.480469 313.652344 236.984375 312.652344 C 239.488281 311.652344 241.964844 310.582031 244.40625 309.441406 C 246.851562 308.296875 249.257812 307.085938 251.632812 305.804688 C 254.007812 304.523438 256.339844 303.175781 258.636719 301.761719 C 260.933594 300.347656 263.1875 298.867188 265.398438 297.320312 C 267.609375 295.777344 269.773438 294.167969 271.890625 292.5 C 274.007812 290.828125 276.078125 289.101562 278.097656 287.3125 C 280.117188 285.523438 282.082031 283.675781 283.992188 281.773438 C 285.90625 279.875 287.761719 277.917969 289.5625 275.910156 C 291.363281 273.898438 293.101562 271.839844 294.785156 269.734375 C 296.464844 267.625 298.085938 265.46875 299.644531 263.265625 C 301.199219 261.0625 302.695312 258.820312 304.121094 256.53125 C 305.550781 254.242188 306.910156 251.914062 308.207031 249.550781 C 309.5 247.183594 310.726562 244.78125 311.882812 242.34375 C 313.035156 239.90625 314.121094 237.4375 315.136719 234.9375 C 316.148438 232.441406 317.089844 229.914062 317.960938 227.359375 C 318.828125 224.804688 319.621094 222.230469 320.34375 219.628906 C 321.0625 217.03125 321.707031 214.414062 322.277344 211.777344 C 322.847656 209.140625 323.339844 206.488281 323.757812 203.824219 C 324.175781 201.160156 324.515625 198.484375 324.777344 195.800781 C 325.039062 193.117188 325.226562 190.425781 325.332031 187.730469 C 325.441406 185.035156 325.472656 182.339844 325.425781 179.644531 C 325.378906 176.949219 325.253906 174.253906 325.050781 171.566406 C 324.851562 168.875 324.570312 166.191406 324.214844 163.519531 C 323.859375 160.847656 323.425781 158.183594 322.914062 155.535156 C 322.40625 152.886719 321.820312 150.253906 321.160156 147.640625 C 320.5 145.027344 319.761719 142.433594 318.953125 139.859375 C 318.140625 137.285156 317.257812 134.738281 316.300781 132.21875 C 315.34375 129.695312 314.316406 127.203125 313.214844 124.742188 C 312.113281 122.277344 310.945312 119.851562 309.703125 117.453125 C 308.464844 115.058594 307.15625 112.703125 305.78125 110.382812 C 304.402344 108.0625 302.960938 105.785156 301.457031 103.546875 C 299.949219 101.308594 298.378906 99.117188 296.746094 96.972656 C 295.113281 94.824219 293.417969 92.726562 291.664062 90.679688 C 289.910156 88.628906 288.097656 86.632812 286.230469 84.6875 C 284.359375 82.742188 282.4375 80.855469 280.460938 79.019531 C 278.480469 77.183594 276.453125 75.410156 274.375 73.691406 C 272.292969 71.976562 270.164062 70.320312 267.992188 68.722656 C 265.816406 67.128906 263.597656 65.597656 261.332031 64.132812 C 259.070312 62.664062 256.765625 61.261719 254.421875 59.929688 C 252.078125 58.59375 249.699219 57.328125 247.28125 56.132812 C 244.863281 54.933594 242.414062 53.808594 239.933594 52.75 C 237.449219 51.695312 234.941406 50.710938 232.402344 49.796875 C 229.863281 48.886719 227.300781 48.046875 224.714844 47.28125 C 222.128906 46.519531 219.523438 45.828125 216.894531 45.214844 C 214.269531 44.601562 211.628906 44.0625 208.96875 43.597656 C 206.3125 43.136719 203.644531 42.75 200.964844 42.441406 C 198.285156 42.132812 195.597656 41.902344 192.90625 41.746094 C 190.214844 41.59375 187.519531 41.515625 184.820312 41.519531 Z M 184.820312 309.375 C 178.839844 309.371094 172.886719 308.945312 166.960938 308.097656 C 161.039062 307.25 155.207031 305.992188 149.460938 304.316406 C 143.71875 302.644531 138.121094 300.578125 132.667969 298.109375 C 127.214844 295.644531 121.964844 292.808594 116.914062 289.601562 C 115.820312 288.90625 114.625 288.558594 113.332031 288.558594 C 112.605469 288.558594 111.898438 288.675781 111.214844 288.90625 L 61.472656 305.484375 L 78.058594 255.75 C 78.371094 254.796875 78.46875 253.820312 78.347656 252.824219 C 78.226562 251.824219 77.898438 250.898438 77.363281 250.046875 C 76.121094 248.078125 74.933594 246.074219 73.800781 244.039062 C 72.667969 242.003906 71.59375 239.9375 70.574219 237.84375 C 69.554688 235.746094 68.59375 233.625 67.691406 231.480469 C 66.789062 229.332031 65.949219 227.160156 65.164062 224.964844 C 64.382812 222.773438 63.660156 220.558594 62.996094 218.324219 C 62.335938 216.089844 61.738281 213.839844 61.199219 211.574219 C 60.660156 209.304688 60.1875 207.027344 59.773438 204.734375 C 59.363281 202.441406 59.011719 200.136719 58.726562 197.828125 C 58.441406 195.515625 58.21875 193.195312 58.0625 190.871094 C 57.902344 188.546875 57.808594 186.222656 57.777344 183.890625 C 57.75 181.5625 57.78125 179.234375 57.878906 176.90625 C 57.976562 174.578125 58.136719 172.253906 58.363281 169.9375 C 58.589844 167.617188 58.878906 165.308594 59.230469 163.003906 C 59.582031 160.703125 59.996094 158.410156 60.476562 156.128906 C 60.953125 153.851562 61.496094 151.585938 62.097656 149.335938 C 62.699219 147.085938 63.363281 144.851562 64.089844 142.636719 C 64.816406 140.425781 65.601562 138.230469 66.445312 136.0625 C 67.292969 133.890625 68.199219 131.746094 69.160156 129.625 C 70.125 127.503906 71.148438 125.410156 72.226562 123.347656 C 73.304688 121.28125 74.441406 119.25 75.632812 117.246094 C 76.820312 115.242188 78.066406 113.273438 79.367188 111.339844 C 80.664062 109.40625 82.015625 107.511719 83.417969 105.652344 C 84.820312 103.792969 86.273438 101.972656 87.777344 100.191406 C 89.28125 98.414062 90.832031 96.675781 92.429688 94.980469 C 94.03125 93.285156 95.675781 91.636719 97.363281 90.03125 C 99.050781 88.429688 100.785156 86.871094 102.558594 85.363281 C 104.335938 83.855469 106.148438 82.394531 108.003906 80.984375 C 109.859375 79.578125 111.753906 78.21875 113.683594 76.914062 C 115.613281 75.609375 117.574219 74.359375 119.574219 73.160156 C 121.574219 71.964844 123.601562 70.824219 125.664062 69.738281 C 127.726562 68.652344 129.816406 67.625 131.933594 66.652344 C 134.050781 65.683594 136.191406 64.769531 138.359375 63.917969 C 140.527344 63.066406 142.71875 62.273438 144.929688 61.539062 C 147.140625 60.804688 149.371094 60.136719 151.621094 59.523438 C 153.867188 58.914062 156.132812 58.367188 158.410156 57.882812 C 160.6875 57.394531 162.980469 56.972656 165.28125 56.613281 C 167.582031 56.253906 169.890625 55.957031 172.210938 55.726562 C 174.527344 55.492188 176.851562 55.324219 179.175781 55.21875 C 181.503906 55.113281 183.832031 55.074219 186.164062 55.097656 C 188.492188 55.117188 190.820312 55.207031 193.144531 55.355469 C 195.46875 55.507812 197.789062 55.722656 200.101562 56 C 202.414062 56.277344 204.71875 56.621094 207.011719 57.023438 C 209.304688 57.429688 211.585938 57.898438 213.855469 58.429688 C 216.125 58.957031 218.375 59.550781 220.613281 60.203125 C 222.847656 60.859375 225.0625 61.574219 227.261719 62.351562 C 229.457031 63.125 231.632812 63.960938 233.78125 64.859375 C 235.933594 65.753906 238.058594 66.707031 240.15625 67.71875 C 242.253906 68.730469 244.320312 69.800781 246.363281 70.925781 C 248.402344 72.050781 250.40625 73.234375 252.382812 74.46875 C 254.355469 75.707031 256.296875 76.996094 258.199219 78.339844 C 260.101562 79.679688 261.96875 81.074219 263.796875 82.519531 C 265.621094 83.964844 267.410156 85.460938 269.152344 87.003906 C 270.898438 88.546875 272.597656 90.136719 274.257812 91.777344 C 275.914062 93.414062 277.527344 95.09375 279.089844 96.820312 C 280.65625 98.546875 282.171875 100.3125 283.640625 102.121094 C 285.109375 103.929688 286.523438 105.777344 287.890625 107.664062 C 289.257812 109.550781 290.570312 111.476562 291.832031 113.433594 C 293.09375 115.394531 294.296875 117.386719 295.449219 119.410156 C 296.601562 121.4375 297.695312 123.492188 298.734375 125.578125 C 299.769531 127.664062 300.75 129.777344 301.671875 131.914062 C 302.59375 134.054688 303.457031 136.21875 304.261719 138.40625 C 305.0625 140.589844 305.804688 142.796875 306.488281 145.027344 C 307.167969 147.253906 307.789062 149.5 308.347656 151.761719 C 308.90625 154.023438 309.402344 156.296875 309.835938 158.585938 C 310.269531 160.875 310.636719 163.175781 310.945312 165.484375 C 311.253906 167.792969 311.496094 170.109375 311.675781 172.433594 C 311.855469 174.753906 311.96875 177.082031 312.023438 179.410156 C 312.074219 181.738281 312.0625 184.066406 311.984375 186.394531 C 311.910156 188.722656 311.769531 191.046875 311.5625 193.371094 C 311.359375 195.691406 311.09375 198.003906 310.761719 200.308594 C 310.429688 202.617188 310.035156 204.910156 309.578125 207.195312 C 309.121094 209.480469 308.601562 211.75 308.019531 214.003906 C 307.4375 216.261719 306.792969 218.5 306.089844 220.71875 C 305.382812 222.9375 304.617188 225.136719 303.792969 227.316406 C 302.964844 229.496094 302.078125 231.648438 301.136719 233.777344 C 300.191406 235.90625 299.1875 238.011719 298.128906 240.085938 C 297.070312 242.160156 295.953125 244.203125 294.78125 246.214844 C 293.609375 248.230469 292.378906 250.207031 291.101562 252.15625 C 289.820312 254.101562 288.484375 256.007812 287.097656 257.882812 C 285.710938 259.753906 284.277344 261.585938 282.789062 263.378906 C 281.300781 265.171875 279.765625 266.925781 278.183594 268.632812 C 276.601562 270.34375 274.972656 272.007812 273.296875 273.625 C 271.621094 275.246094 269.90625 276.820312 268.144531 278.34375 C 266.382812 279.867188 264.582031 281.34375 262.738281 282.769531 C 260.898438 284.195312 259.015625 285.570312 257.097656 286.894531 C 255.183594 288.214844 253.230469 289.484375 251.242188 290.699219 C 249.253906 291.917969 247.234375 293.078125 245.183594 294.179688 C 243.132812 295.285156 241.050781 296.332031 238.945312 297.320312 C 236.835938 298.3125 234.699219 299.242188 232.539062 300.117188 C 230.378906 300.988281 228.199219 301.800781 225.992188 302.554688 C 223.789062 303.308594 221.566406 304 219.324219 304.628906 C 217.078125 305.261719 214.820312 305.828125 212.546875 306.335938 C 210.273438 306.839844 207.988281 307.285156 205.6875 307.664062 C 203.390625 308.046875 201.082031 308.363281 198.769531 308.617188 C 196.453125 308.871094 194.132812 309.0625 191.804688 309.1875 C 189.480469 309.3125 187.152344 309.375 184.820312 309.375 Z M 131.25 182.144531 C 131.25 183.023438 131.164062 183.894531 130.992188 184.753906 C 130.820312 185.617188 130.566406 186.457031 130.230469 187.269531 C 129.894531 188.082031 129.480469 188.851562 128.992188 189.582031 C 128.503906 190.316406 127.949219 190.992188 127.328125 191.613281 C 126.707031 192.234375 126.027344 192.789062 125.296875 193.277344 C 124.566406 193.765625 123.792969 194.179688 122.980469 194.515625 C 122.167969 194.851562 121.332031 195.105469 120.46875 195.277344 C 119.609375 195.449219 118.738281 195.535156 117.855469 195.535156 C 116.976562 195.535156 116.105469 195.449219 115.246094 195.277344 C 114.382812 195.105469 113.542969 194.851562 112.730469 194.515625 C 111.917969 194.179688 111.148438 193.765625 110.417969 193.277344 C 109.683594 192.789062 109.007812 192.234375 108.386719 191.613281 C 107.765625 190.992188 107.210938 190.316406 106.722656 189.582031 C 106.234375 188.851562 105.820312 188.082031 105.484375 187.269531 C 105.148438 186.457031 104.894531 185.617188 104.722656 184.753906 C 104.550781 183.894531 104.464844 183.023438 104.464844 182.144531 C 104.464844 181.261719 104.550781 180.390625 104.722656 179.53125 C 104.894531 178.667969 105.148438 177.828125 105.484375 177.019531 C 105.820312 176.207031 106.234375 175.433594 106.722656 174.703125 C 107.210938 173.972656 107.765625 173.292969 108.386719 172.671875 C 109.007812 172.050781 109.683594 171.496094 110.417969 171.007812 C 111.148438 170.519531 111.917969 170.105469 112.730469 169.769531 C 113.542969 169.433594 114.382812 169.179688 115.246094 169.007812 C 116.105469 168.835938 116.976562 168.75 117.855469 168.75 C 118.738281 168.75 119.609375 168.835938 120.46875 169.007812 C 121.332031 169.179688 122.167969 169.433594 122.980469 169.769531 C 123.792969 170.105469 124.566406 170.519531 125.296875 171.007812 C 126.027344 171.496094 126.707031 172.050781 127.328125 172.671875 C 127.949219 173.292969 128.503906 173.972656 128.992188 174.703125 C 129.480469 175.433594 129.894531 176.207031 130.230469 177.019531 C 130.566406 177.828125 130.820312 178.667969 130.992188 179.53125 C 131.164062 180.390625 131.25 181.261719 131.25 182.144531 Z M 198.214844 182.144531 C 198.214844 183.023438 198.128906 183.894531 197.957031 184.753906 C 197.785156 185.617188 197.53125 186.457031 197.195312 187.269531 C 196.859375 188.082031 196.445312 188.851562 195.957031 189.582031 C 195.46875 190.316406 194.914062 190.992188 194.292969 191.613281 C 193.667969 192.234375 192.992188 192.789062 192.261719 193.277344 C 191.53125 193.765625 190.757812 194.179688 189.945312 194.515625 C 189.132812 194.851562 188.296875 195.105469 187.433594 195.277344 C 186.570312 195.449219 185.699219 195.535156 184.820312 195.535156 C 183.941406 195.535156 183.070312 195.449219 182.207031 195.277344 C 181.347656 195.105469 180.507812 194.851562 179.695312 194.515625 C 178.882812 194.179688 178.113281 193.765625 177.378906 193.277344 C 176.648438 192.789062 175.972656 192.234375 175.351562 191.613281 C 174.730469 190.992188 174.175781 190.316406 173.6875 189.582031 C 173.195312 188.851562 172.785156 188.082031 172.449219 187.269531 C 172.113281 186.457031 171.859375 185.617188 171.6875 184.753906 C 171.515625 183.894531 171.429688 183.023438 171.429688 182.144531 C 171.429688 181.261719 171.515625 180.390625 171.6875 179.53125 C 171.859375 178.667969 172.113281 177.828125 172.449219 177.019531 C 172.785156 176.207031 173.195312 175.433594 173.6875 174.703125 C 174.175781 173.972656 174.730469 173.292969 175.351562 172.671875 C 175.972656 172.050781 176.648438 171.496094 177.378906 171.007812 C 178.113281 170.519531 178.882812 170.105469 179.695312 169.769531 C 180.507812 169.433594 181.347656 169.179688 182.207031 169.007812 C 183.070312 168.835938 183.941406 168.75 184.820312 168.75 C 185.699219 168.75 186.570312 168.835938 187.433594 169.007812 C 188.296875 169.179688 189.132812 169.433594 189.945312 169.769531 C 190.757812 170.105469 191.53125 170.519531 192.261719 171.007812 C 192.992188 171.496094 193.667969 172.050781 194.292969 172.671875 C 194.914062 173.292969 195.46875 173.972656 195.957031 174.703125 C 196.445312 175.433594 196.859375 176.207031 197.195312 177.019531 C 197.53125 177.828125 197.785156 178.667969 197.957031 179.53125 C 198.128906 180.390625 198.214844 181.261719 198.214844 182.144531 Z M 265.179688 182.144531 C 265.179688 183.023438 265.09375 183.894531 264.921875 184.753906 C 264.75 185.617188 264.496094 186.457031 264.160156 187.269531 C 263.824219 188.082031 263.410156 188.851562 262.921875 189.582031 C 262.433594 190.316406 261.878906 190.992188 261.257812 191.613281 C 260.632812 192.234375 259.957031 192.789062 259.226562 193.277344 C 258.496094 193.765625 257.722656 194.179688 256.910156 194.515625 C 256.097656 194.851562 255.261719 195.105469 254.398438 195.277344 C 253.535156 195.449219 252.664062 195.535156 251.785156 195.535156 C 250.90625 195.535156 250.035156 195.449219 249.171875 195.277344 C 248.308594 195.105469 247.472656 194.851562 246.660156 194.515625 C 245.847656 194.179688 245.078125 193.765625 244.34375 193.277344 C 243.613281 192.789062 242.9375 192.234375 242.316406 191.613281 C 241.695312 190.992188 241.136719 190.316406 240.648438 189.582031 C 240.160156 188.851562 239.75 188.082031 239.414062 187.269531 C 239.074219 186.457031 238.820312 185.617188 238.648438 184.753906 C 238.480469 183.894531 238.394531 183.023438 238.394531 182.144531 C 238.394531 181.261719 238.480469 180.390625 238.648438 179.53125 C 238.820312 178.667969 239.074219 177.828125 239.414062 177.019531 C 239.75 176.207031 240.160156 175.433594 240.648438 174.703125 C 241.136719 173.972656 241.695312 173.292969 242.316406 172.671875 C 242.9375 172.050781 243.613281 171.496094 244.34375 171.007812 C 245.078125 170.519531 245.847656 170.105469 246.660156 169.769531 C 247.472656 169.433594 248.308594 169.179688 249.171875 169.007812 C 250.035156 168.835938 250.90625 168.75 251.785156 168.75 C 252.664062 168.75 253.535156 168.835938 254.398438 169.007812 C 255.261719 169.179688 256.097656 169.433594 256.910156 169.769531 C 257.722656 170.105469 258.496094 170.519531 259.226562 171.007812 C 259.957031 171.496094 260.632812 172.050781 261.257812 172.671875 C 261.878906 173.292969 262.433594 173.972656 262.921875 174.703125 C 263.410156 175.433594 263.824219 176.207031 264.160156 177.019531 C 264.496094 177.828125 264.75 178.667969 264.921875 179.53125 C 265.09375 180.390625 265.179688 181.261719 265.179688 182.144531 Z M 265.179688 182.144531 " fill-opacity="1" fill-rule="nonzero"/></svg>