<svg xmlns="http://www.w3.org/2000/svg" xmlns:xlink="http://www.w3.org/1999/xlink" width="500" zoomAndPan="magnify" viewBox="0 0 375 374.999991" height="500" preserveAspectRatio="xMidYMid meet" version="1.0"><defs><clipPath id="dc475a484e"><path d="M 37.5 37.5 L 291.75 37.5 L 291.75 337.5 L 37.5 337.5 Z M 37.5 37.5 " clip-rule="nonzero"/></clipPath></defs><g clip-path="url(#dc475a484e)"><path fill="#13139f" d="M 57.007812 37.941406 C 46.3125 37.941406 37.5 46.753906 37.5 57.449219 L 37.5 317.550781 C 37.5 328.246094 46.3125 337.058594 57.007812 337.058594 L 96.023438 337.058594 C 96.453125 337.066406 96.882812 337.027344 97.304688 336.949219 C 97.726562 336.871094 98.140625 336.75 98.539062 336.589844 C 98.941406 336.429688 99.320312 336.230469 99.679688 335.996094 C 100.039062 335.757812 100.375 335.488281 100.679688 335.1875 C 100.988281 334.886719 101.261719 334.554688 101.503906 334.199219 C 101.746094 333.839844 101.949219 333.464844 102.113281 333.066406 C 102.28125 332.667969 102.40625 332.257812 102.492188 331.835938 C 102.578125 331.414062 102.617188 330.988281 102.617188 330.554688 C 102.617188 330.125 102.578125 329.699219 102.492188 329.277344 C 102.40625 328.855469 102.28125 328.445312 102.113281 328.046875 C 101.949219 327.648438 101.746094 327.269531 101.503906 326.914062 C 101.261719 326.558594 100.988281 326.226562 100.679688 325.925781 C 100.375 325.621094 100.039062 325.351562 99.679688 325.117188 C 99.320312 324.882812 98.941406 324.683594 98.539062 324.523438 C 98.140625 324.359375 97.726562 324.242188 97.304688 324.164062 C 96.882812 324.082031 96.453125 324.046875 96.023438 324.054688 L 57.007812 324.054688 C 53.292969 324.054688 50.503906 321.265625 50.503906 317.550781 L 50.503906 57.449219 C 50.503906 53.734375 53.292969 50.945312 57.007812 50.945312 L 96.023438 50.945312 C 96.453125 50.953125 96.882812 50.914062 97.304688 50.835938 C 97.726562 50.757812 98.140625 50.636719 98.539062 50.476562 C 98.941406 50.316406 99.320312 50.117188 99.679688 49.882812 C 100.039062 49.644531 100.375 49.378906 100.679688 49.074219 C 100.988281 48.773438 101.261719 48.441406 101.503906 48.085938 C 101.746094 47.726562 101.949219 47.351562 102.113281 46.953125 C 102.28125 46.554688 102.40625 46.144531 102.492188 45.722656 C 102.574219 45.300781 102.617188 44.875 102.617188 44.445312 C 102.617188 44.011719 102.574219 43.585938 102.492188 43.164062 C 102.40625 42.742188 102.28125 42.332031 102.113281 41.933594 C 101.949219 41.535156 101.746094 41.160156 101.503906 40.800781 C 101.261719 40.445312 100.988281 40.117188 100.679688 39.8125 C 100.375 39.511719 100.039062 39.242188 99.679688 39.003906 C 99.320312 38.769531 98.941406 38.570312 98.539062 38.410156 C 98.140625 38.25 97.726562 38.128906 97.304688 38.050781 C 96.882812 37.972656 96.453125 37.933594 96.023438 37.941406 Z M 225.667969 115.871094 C 225.054688 115.902344 224.453125 116.019531 223.875 116.222656 C 223.292969 116.421875 222.75 116.703125 222.246094 117.058594 C 221.746094 117.414062 221.300781 117.832031 220.917969 118.316406 C 220.535156 118.796875 220.226562 119.320312 219.992188 119.890625 C 219.757812 120.460938 219.609375 121.050781 219.542969 121.664062 C 219.476562 122.277344 219.496094 122.886719 219.601562 123.492188 C 219.707031 124.097656 219.898438 124.675781 220.167969 125.230469 C 220.441406 125.78125 220.78125 126.285156 221.195312 126.742188 L 269.964844 180.996094 L 109.027344 180.996094 C 108.824219 180.988281 108.621094 180.988281 108.417969 180.996094 C 107.992188 181.015625 107.570312 181.078125 107.15625 181.183594 C 106.742188 181.285156 106.339844 181.425781 105.953125 181.609375 C 105.566406 181.789062 105.199219 182.007812 104.855469 182.261719 C 104.511719 182.515625 104.199219 182.800781 103.910156 183.117188 C 103.621094 183.433594 103.367188 183.773438 103.148438 184.140625 C 102.925781 184.507812 102.742188 184.890625 102.597656 185.292969 C 102.453125 185.695312 102.351562 186.109375 102.285156 186.53125 C 102.222656 186.953125 102.199219 187.378906 102.222656 187.804688 C 102.242188 188.230469 102.300781 188.652344 102.40625 189.066406 C 102.507812 189.480469 102.652344 189.882812 102.832031 190.269531 C 103.015625 190.65625 103.230469 191.023438 103.484375 191.367188 C 103.738281 191.710938 104.023438 192.027344 104.339844 192.3125 C 104.65625 192.601562 104.996094 192.855469 105.363281 193.074219 C 105.730469 193.296875 106.113281 193.480469 106.515625 193.625 C 106.917969 193.769531 107.332031 193.875 107.753906 193.9375 C 108.175781 194 108.601562 194.023438 109.027344 194.003906 L 269.964844 194.003906 L 221.195312 248.15625 C 220.914062 248.476562 220.667969 248.820312 220.453125 249.191406 C 220.242188 249.558594 220.066406 249.945312 219.925781 250.351562 C 219.789062 250.753906 219.691406 251.167969 219.636719 251.589844 C 219.578125 252.011719 219.566406 252.4375 219.589844 252.863281 C 219.617188 253.289062 219.6875 253.707031 219.796875 254.121094 C 219.90625 254.53125 220.050781 254.929688 220.238281 255.3125 C 220.425781 255.695312 220.648438 256.058594 220.90625 256.398438 C 221.167969 256.738281 221.457031 257.046875 221.773438 257.332031 C 222.09375 257.613281 222.4375 257.863281 222.804688 258.078125 C 223.175781 258.292969 223.558594 258.46875 223.964844 258.609375 C 224.367188 258.75 224.777344 258.847656 225.203125 258.90625 C 225.625 258.964844 226.046875 258.980469 226.472656 258.957031 C 226.898438 258.933594 227.320312 258.867188 227.730469 258.757812 C 228.144531 258.652344 228.542969 258.503906 228.925781 258.320312 C 229.3125 258.132812 229.671875 257.910156 230.015625 257.65625 C 230.355469 257.398438 230.667969 257.109375 230.949219 256.792969 L 289.472656 191.765625 C 289.734375 191.472656 289.96875 191.15625 290.175781 190.820312 C 290.378906 190.480469 290.550781 190.128906 290.691406 189.757812 C 290.832031 189.390625 290.9375 189.011719 291.007812 188.625 C 291.078125 188.234375 291.113281 187.84375 291.113281 187.449219 C 291.113281 187.054688 291.078125 186.664062 291.007812 186.273438 C 290.9375 185.886719 290.832031 185.507812 290.691406 185.140625 C 290.550781 184.769531 290.378906 184.417969 290.171875 184.078125 C 289.96875 183.742188 289.734375 183.425781 289.472656 183.132812 L 230.949219 118.105469 C 230.292969 117.34375 229.496094 116.765625 228.570312 116.375 C 227.640625 115.980469 226.675781 115.8125 225.667969 115.871094 Z M 225.667969 115.871094 " fill-opacity="1" fill-rule="nonzero"/></g></svg>