<svg xmlns="http://www.w3.org/2000/svg" width="500" zoomAndPan="magnify"
     viewBox="0 0 375 374.999991" height="500" preserveAspectRatio="xMidYMid meet" version="1.0">
    <defs>
        <clipPath id="eefa3ee384">
            <path d="M 38 51.988281 L 337 51.988281 L 337 312.988281 L 38 312.988281 Z M 38 51.988281 "
                  clip-rule="nonzero"/>
        </clipPath>
    </defs>
    <g clip-path="url(#eefa3ee384)">
        <path fill="#13139f"
              d="M 272.1875 77.535156 L 247.195312 77.535156 L 247.195312 60.320312 C 247.195312 55.878906 243.308594 51.988281 238.867188 51.988281 C 234.425781 51.988281 230.539062 55.878906 230.539062 60.320312 L 230.539062 77.535156 L 143.351562 77.535156 L 143.351562 60.320312 C 143.351562 55.878906 139.464844 51.988281 135.023438 51.988281 C 130.578125 51.988281 126.691406 55.878906 126.691406 60.320312 L 126.691406 77.535156 L 102.8125 77.535156 C 67.828125 77.535156 38.953125 106.410156 38.953125 141.394531 L 38.953125 249.128906 C 38.953125 284.113281 67.828125 312.988281 102.8125 312.988281 L 272.1875 312.988281 C 307.171875 312.988281 336.046875 284.113281 336.046875 249.128906 L 336.046875 141.394531 C 336.046875 106.410156 307.171875 77.535156 272.1875 77.535156 Z M 319.386719 249.128906 C 319.386719 275.226562 298.285156 296.332031 272.1875 296.332031 L 102.8125 296.332031 C 76.714844 296.332031 55.613281 275.226562 55.613281 249.128906 L 55.613281 141.394531 C 55.613281 115.296875 76.714844 94.195312 102.8125 94.195312 L 126.691406 94.195312 L 126.691406 116.40625 C 126.691406 120.847656 130.578125 124.738281 135.023438 124.738281 C 139.464844 124.738281 143.351562 120.847656 143.351562 116.40625 L 143.351562 94.195312 L 230.539062 94.195312 L 230.539062 116.40625 C 230.539062 120.847656 234.425781 124.738281 238.867188 124.738281 C 243.308594 124.738281 247.195312 120.847656 247.195312 116.40625 L 247.195312 94.195312 L 272.1875 94.195312 C 298.285156 94.195312 319.386719 115.296875 319.386719 141.394531 Z M 319.386719 249.128906 "
              fill-opacity="1" fill-rule="nonzero"/>
    </g>
</svg>