<svg xmlns="http://www.w3.org/2000/svg" xmlns:xlink="http://www.w3.org/1999/xlink" width="500" zoomAndPan="magnify" viewBox="0 0 375 374.999991" height="500" preserveAspectRatio="xMidYMid meet" version="1.0"><defs><clipPath id="09a7c61593"><path d="M 38 66.480469 L 337 66.480469 L 337 300.480469 L 38 300.480469 Z M 38 66.480469 " clip-rule="nonzero"/></clipPath></defs><g clip-path="url(#09a7c61593)"><path fill="#13139f" d="M 245.675781 141.855469 C 244.976562 142.65625 244.460938 143.378906 244.128906 144.035156 C 243.789062 144.699219 243.53125 145.355469 243.339844 146.011719 C 243.15625 146.667969 242.875 147.824219 242.511719 149.476562 C 241.871094 152.992188 239.859375 154.746094 236.484375 154.746094 C 234.730469 154.746094 233.253906 154.171875 232.054688 153.023438 C 230.851562 151.878906 230.253906 150.175781 230.253906 147.90625 C 230.253906 145.074219 230.695312 142.621094 231.574219 140.542969 C 232.445312 138.464844 233.609375 136.648438 235.066406 135.074219 C 236.519531 133.503906 238.472656 131.644531 240.9375 129.484375 C 243.101562 127.589844 244.664062 126.167969 245.617188 125.203125 C 246.582031 124.242188 247.394531 123.167969 248.050781 121.988281 C 248.707031 120.808594 249.042969 119.519531 249.042969 118.140625 C 249.042969 115.441406 248.035156 113.164062 246.023438 111.300781 C 244.023438 109.449219 241.429688 108.519531 238.253906 108.519531 C 234.539062 108.519531 231.808594 109.457031 230.054688 111.328125 C 228.300781 113.207031 226.8125 115.964844 225.601562 119.613281 C 224.453125 123.425781 222.277344 125.328125 219.070312 125.328125 C 217.171875 125.328125 215.578125 124.664062 214.28125 123.328125 C 212.984375 121.996094 212.335938 120.550781 212.335938 118.996094 C 212.335938 115.796875 213.359375 112.546875 215.421875 109.257812 C 217.480469 105.96875 220.480469 103.242188 224.4375 101.082031 C 228.382812 98.921875 232.988281 97.839844 238.253906 97.839844 C 243.148438 97.839844 247.472656 98.738281 251.21875 100.550781 C 254.964844 102.351562 257.859375 104.804688 259.902344 107.910156 C 261.9375 111.019531 262.960938 114.394531 262.960938 118.042969 C 262.960938 120.90625 262.378906 123.425781 261.214844 125.578125 C 260.050781 127.746094 258.664062 129.609375 257.058594 131.179688 C 255.457031 132.75 252.582031 135.390625 248.433594 139.097656 C 247.28125 140.144531 246.367188 141.066406 245.675781 141.855469 Z M 242.410156 161.527344 C 243.855469 162.980469 244.585938 164.765625 244.585938 166.894531 C 244.585938 169.261719 243.824219 171.113281 242.300781 172.46875 C 240.789062 173.816406 239.027344 174.488281 237.042969 174.488281 C 234.980469 174.488281 233.1875 173.824219 231.648438 172.484375 C 230.113281 171.15625 229.347656 169.296875 229.347656 166.894531 C 229.347656 164.765625 230.085938 162.980469 231.574219 161.527344 C 233.0625 160.078125 234.882812 159.355469 237.042969 159.355469 C 239.167969 159.355469 240.957031 160.078125 242.410156 161.527344 Z M 310.183594 187.453125 C 310.714844 192.777344 311.265625 198.113281 311.8125 203.464844 C 312.519531 210.320312 313.226562 217.199219 313.90625 224.082031 L 314.65625 231.726562 L 307.773438 228.300781 C 300.519531 224.695312 293.28125 221.066406 286.050781 217.441406 C 279.273438 214.035156 272.5 210.636719 265.695312 207.253906 C 260.550781 208.34375 255.441406 209.125 250.488281 209.570312 C 248.128906 209.773438 246.082031 208.050781 245.867188 205.714844 C 245.652344 203.375 247.378906 201.304688 249.722656 201.097656 C 254.785156 200.632812 260.035156 199.800781 265.328125 198.621094 L 266.800781 198.296875 L 268.144531 198.96875 C 275.40625 202.574219 282.636719 206.207031 289.867188 209.828125 C 294.800781 212.304688 299.730469 214.78125 304.667969 217.25 C 304.234375 212.9375 303.792969 208.632812 303.351562 204.335938 C 302.714844 198.179688 302.082031 192.039062 301.476562 185.914062 L 301.234375 183.503906 L 303.195312 182.066406 C 319.464844 170.117188 328.441406 154.59375 328.441406 138.375 C 328.441406 103.417969 287.722656 74.980469 237.691406 74.980469 C 198.246094 74.980469 163.519531 92.597656 151.261719 118.824219 C 150.265625 120.949219 147.738281 121.871094 145.601562 120.875 C 143.476562 119.886719 142.5625 117.351562 143.550781 115.222656 C 157.179688 86.058594 195.011719 66.472656 237.691406 66.472656 C 292.417969 66.472656 336.949219 98.730469 336.949219 138.375 C 336.949219 156.699219 327.460938 174.046875 310.183594 187.453125 Z M 140.882812 235.773438 C 142.378906 237.242188 143.132812 239.023438 143.132812 241.117188 C 143.132812 243.484375 142.371094 245.335938 140.847656 246.683594 C 139.335938 248.039062 137.558594 248.710938 135.539062 248.710938 C 133.480469 248.710938 131.675781 248.046875 130.148438 246.707031 C 128.609375 245.378906 127.84375 243.515625 127.84375 241.117188 C 127.84375 239.023438 128.578125 237.242188 130.046875 235.773438 C 131.507812 234.308594 133.3125 233.570312 135.433594 233.570312 C 137.558594 233.570312 139.378906 234.308594 140.882812 235.773438 Z M 141.664062 175.070312 C 142.644531 177.082031 143.132812 179.972656 143.132812 183.753906 C 143.132812 185.980469 143.011719 188.242188 142.777344 190.535156 L 140.601562 215.496094 C 140.367188 218.472656 139.851562 220.75 139.078125 222.335938 C 138.308594 223.921875 137.019531 224.710938 135.230469 224.710938 C 133.414062 224.710938 132.140625 223.949219 131.433594 222.410156 C 130.726562 220.875 130.222656 218.539062 129.914062 215.398438 L 128.300781 191.148438 C 127.996094 186.421875 127.84375 183.03125 127.84375 180.96875 C 127.84375 178.171875 128.578125 175.984375 130.046875 174.414062 C 131.507812 172.84375 133.445312 172.0625 135.839844 172.0625 C 138.746094 172.0625 140.683594 173.066406 141.664062 175.070312 Z M 137.316406 270.355469 C 134.683594 270.355469 132.050781 270.273438 129.40625 270.089844 C 123.058594 269.757812 116.417969 268.828125 109.679688 267.324219 L 108.210938 267 L 106.863281 267.671875 C 100.105469 271.023438 93.386719 274.394531 86.664062 277.769531 C 81.226562 280.496094 75.785156 283.230469 70.332031 285.9375 C 70.765625 281.683594 71.207031 277.421875 71.648438 273.167969 C 72.277344 266.96875 72.917969 260.785156 73.53125 254.617188 L 73.765625 252.210938 L 71.8125 250.773438 C 55.535156 238.820312 46.566406 223.292969 46.566406 207.054688 C 46.566406 172.113281 87.277344 143.683594 137.316406 143.683594 C 139.046875 143.683594 140.75 143.726562 142.460938 143.792969 C 179.523438 145.246094 212.195312 162.820312 223.738281 187.519531 C 226.503906 193.484375 227.984375 199.667969 228.132812 206.03125 C 228.152344 206.363281 228.152344 206.722656 228.152344 207.054688 C 228.152344 241.964844 187.398438 270.355469 137.316406 270.355469 Z M 231.449219 183.929688 C 218.386719 155.984375 183.585938 136.886719 142.785156 135.292969 C 140.972656 135.21875 139.15625 135.175781 137.316406 135.175781 C 82.582031 135.175781 38.058594 167.417969 38.058594 207.054688 C 38.058594 225.394531 47.539062 242.753906 64.824219 256.15625 C 64.292969 261.523438 63.734375 266.910156 63.179688 272.292969 C 62.480469 279.109375 61.773438 285.929688 61.101562 292.761719 L 60.355469 300.398438 L 67.226562 296.988281 C 74.996094 293.140625 82.738281 289.253906 90.476562 285.371094 C 96.75 282.230469 103.015625 279.082031 109.304688 275.957031 C 116.011719 277.371094 122.609375 278.261719 128.898438 278.582031 C 131.660156 278.773438 134.492188 278.867188 137.316406 278.867188 C 192.09375 278.867188 236.660156 246.648438 236.660156 207.054688 C 236.660156 206.5625 236.660156 206.050781 236.636719 205.699219 C 236.46875 198.296875 234.722656 190.976562 231.449219 183.929688 " fill-opacity="1" fill-rule="nonzero"/></g></svg>