<svg xmlns="http://www.w3.org/2000/svg" xmlns:xlink="http://www.w3.org/1999/xlink" width="500" zoomAndPan="magnify" viewBox="0 0 375 374.999991" height="500" preserveAspectRatio="xMidYMid meet" version="1.0"><defs><clipPath id="802003202c"><path d="M 38 37.5 L 338 37.5 L 338 337.5 L 38 337.5 Z M 38 37.5 " clip-rule="nonzero"/></clipPath></defs><g clip-path="url(#802003202c)"><path fill="#545454" d="M 336.242188 328.929688 C 338.195312 330.882812 338.195312 334.042969 336.242188 335.996094 C 335.265625 336.972656 333.984375 337.460938 332.707031 337.460938 C 331.429688 337.460938 330.148438 336.972656 329.171875 335.996094 L 187.855469 194.777344 L 46.535156 335.996094 C 45.5625 336.972656 44.28125 337.460938 43.003906 337.460938 C 41.722656 337.460938 40.445312 336.972656 39.46875 335.996094 C 37.515625 334.042969 37.515625 330.882812 39.46875 328.929688 L 180.785156 187.710938 L 39.46875 46.492188 C 37.515625 44.542969 37.515625 41.378906 39.46875 39.429688 C 41.417969 37.480469 44.585938 37.480469 46.535156 39.429688 L 187.855469 180.648438 L 329.171875 39.429688 C 331.125 37.480469 334.289062 37.480469 336.242188 39.429688 C 338.195312 41.378906 338.195312 44.542969 336.242188 46.492188 L 194.925781 187.710938 Z M 336.242188 328.929688 " fill-opacity="1" fill-rule="nonzero"/></g></svg>